<svg width="220" height="220" viewBox="15 10 70 85" xmlns="http://www.w3.org/2000/svg">
  <g fill="#3b2f2f">
    <rect x="22" y="88" width="56" height="6" rx="1.5"/>
    <rect x="26" y="82" width="48" height="6" rx="2"/>
    <path d="M 28 82 C 28 78, 32 74, 50 74 C 68 74, 72 78, 72 82 Z"/>
    <path d="M 35 74 C 33 60, 33 45, 35 30 L 65 30 C 67 45, 67 60, 65 74 Z"/>
    <rect x="32" y="26" width="36" height="4" rx="1.5"/>
    <path d="M 30 26 L 30 18 L 38 18 L 38 22 L 44 22 L 44 18 L 56 18 L 56 22 L 62 22 L 62 18 L 70 18 L 70 26 Z"/>
  </g>
  <g stroke="#e8dfcf" stroke-width="1.2" fill="none" opacity="0.6">
    <line x1="35" y1="74" x2="65" y2="74"/>
    <line x1="35" y1="30" x2="65" y2="30"/>
  </g>
</svg>
